<svg xmlns="http://www.w3.org/2000/svg" class="svg-logo" width="2400" height="2400" viewBox="0 0 630 430" style="height: auto;"><rect width="630" height="630" y="-100" rx="0" ry="0" fill="transparent" fill-opacity="0"></rect><g data-element="wrapper" transform="translate(31.499993133541864 21.499999999997925) scale(0.9000000000000097)"><g ><g data-element="icon" transform="scale(0.1472766447693335) translate(504.0517865180969 1162.1992697192795)"><path id="color_x5F_1" d="M521.313,393.285c2.918,10.681,9.729,30.121-19.447,32.06    c-29.15,1.94-105.575-7.529-138.379,36.214c-20.271,27.034-35.971,85.046-4.5,124.652c0,0-82.501-52.712-82.501-176.653    c0-39.381,20.408-91.606,74.364-176.411c48.139-75.69,8.137-183.489,8.137-183.489s68.037,28.198,90.395,112.759    c0,0,4.493,19.052,13.776,36.667c5.971,0.307,14.179-1.293,23.761-8.71c0,0-5.421,10.747-19.955,15.383    c4.5,7.24,9.889,13.751,16.191,17.905c26.371,17.387,43.993,19.924,48.365,20.894c0,0,5.832,7.789-10.207,23.334    c-16.037,15.544-15.06,24.771-12.15,28.666c2.917,3.894,9.178,4.558,9.178,4.558s6.553,10.39-1.285,16.838    c-5.34,4.379-10.802,11.65-13.233,17.483c0,0,14.487-2.263,16.637-0.97c3.038,4.881,5.349,8.693-2.667,21.331    C507.604,371.841,518.396,382.588,521.313,393.285z M183.237,161.643c48.736,29.522,116.226,28.148,141.96,36.567    c-0.08-0.112-0.194-0.242-0.283-0.371c-53.196-66.383-102.216-97.068-100.85-100.301c-1.462,3.442,63.361,15.223,114.909,85.417    c0.08,0.145,0.185,0.291,0.274,0.453c-0.646-33.999,7.852-97.037-45.609-138.84C268.833,25.161,224,23.061,195.851,19.053    c-40.398-4.897-69.752-9.938-69.744-9.986C126.285,8.646,119.182,120.904,183.237,161.643z M313.61,228.736    c-52.347,22.476-81.555,48.445-84.974,48.59c3.273-1.502,23.634-40.139,77.661-60.678c0.114-0.033,0.235-0.064,0.349-0.097    c-22.728-5.834-72.264-14.269-101.981,11.844c-16.556,14.091-25.911,35.276-33.749,53.261    c-10.697,25.984-19.464,44.568-19.497,44.568c-0.243-0.194,73.121,25.191,112.025-9.906c28.617-26.986,40.131-72.118,50.473-87.696    C313.82,228.655,313.723,228.703,313.61,228.736z M189.16,207.341c-0.064,0-0.137,0-0.21,0    c-39.744,1.632-64.912,11.586-65.743,10.163c0.896,1.503,23.308-19.633,64.021-19.585c0.098,0.017,0.179,0.017,0.26,0.017    c-12.985-9.179-42.305-26.485-67.417-17.113c-13.89,4.913-24.918,16.047-34.241,25.548c-13.049,13.849-23.084,23.512-23.107,23.496    c-0.105-0.177,40.196,33.627,73.306,20.796C160.664,240.499,178.858,214.708,189.16,207.341z" fill="#d177fa" fill-opacity="1"></path></g><path d="M201.39 236L201.39 215.58L179.31 215.58L179.31 236L173.23 236L173.23 191.20L179.31 191.20L179.31 210.34L201.39 210.34L201.39 191.20L207.47 191.20L207.47 236L201.39 236ZM245.30 221.73L222.00 221.73Q222.58 226.40 225.26 229.02Q227.95 231.65 232.37 231.65L232.37 231.65Q235.25 231.65 237.55 231.04Q239.86 230.43 241.97 229.47L241.97 229.47L243.31 234.40Q241.01 235.49 238.13 236.13Q235.25 236.77 231.66 236.77L231.66 236.77Q228.08 236.77 225.20 235.58Q222.32 234.40 220.30 232.19Q218.29 229.98 217.20 226.75Q216.11 223.52 216.11 219.36L216.11 219.36Q216.11 215.65 217.20 212.45Q218.29 209.25 220.27 206.91Q222.26 204.58 225.01 203.26Q227.76 201.95 231.15 201.95L231.15 201.95Q234.74 201.95 237.42 203.17Q240.11 204.38 241.90 206.50Q243.70 208.61 244.59 211.42Q245.49 214.24 245.49 217.38L245.49 217.38Q245.49 219.62 245.30 221.73L245.30 221.73ZM231.02 206.94L231.02 206.94Q227.25 206.94 224.85 209.50Q222.45 212.06 221.94 217.06L221.94 217.06L240.18 217.06Q240.18 212.19 237.74 209.57Q235.31 206.94 231.02 206.94ZM250.93 219.55L250.93 219.55Q250.93 215.84 252.08 212.61Q253.23 209.38 255.31 207.01Q257.39 204.64 260.30 203.30Q263.22 201.95 266.67 201.95L266.67 201.95Q269.55 201.95 271.89 202.94Q274.22 203.94 275.95 205.41L275.95 205.41L275.95 202.72L281.20 202.72L281.20 227.94Q281.20 230.37 282.38 231.10Q283.57 231.84 284.98 231.84L284.98 231.84L283.76 236.32Q277.62 236.32 276.34 231.33L276.34 231.33Q275.57 232.35 274.58 233.34Q273.58 234.34 272.30 235.10Q271.02 235.87 269.42 236.32Q267.82 236.77 265.90 236.77L265.90 236.77Q262.77 236.77 260.05 235.55Q257.33 234.34 255.31 232.10Q253.30 229.86 252.11 226.69Q250.93 223.52 250.93 219.55ZM267.18 231.65L267.18 231.65Q269.62 231.65 271.79 230.50Q273.97 229.34 275.44 227.49L275.44 227.49L275.44 209.63Q273.71 208.42 271.63 207.68Q269.55 206.94 267.25 206.94L267.25 206.94Q264.94 206.94 263.02 207.84Q261.10 208.74 259.73 210.37Q258.35 212 257.58 214.30Q256.82 216.61 256.82 219.36L256.82 219.36Q256.82 222.05 257.58 224.32Q258.35 226.59 259.76 228.22Q261.17 229.86 263.06 230.75Q264.94 231.65 267.18 231.65ZM298.10 188.64L298.10 224.99Q298.10 228.45 299.54 230.11Q300.98 231.78 303.54 231.78L303.54 231.78Q304.75 231.78 305.90 231.49Q307.06 231.20 307.95 230.82L307.95 230.82L309.36 235.49Q308.21 236 306.51 236.38Q304.82 236.77 302.77 236.77L302.77 236.77Q300.53 236.77 298.64 236.13Q296.75 235.49 295.34 234.14Q293.94 232.80 293.14 230.69Q292.34 228.58 292.34 225.57L292.34 225.57L292.34 188.64L298.10 188.64ZM314.29 203.94L315.50 193.44L319.92 193.44L319.92 203.94L329.14 203.94L329.14 208.93L319.92 208.93L319.92 224.99Q319.92 226.85 320.34 228.13Q320.75 229.41 321.46 230.18Q322.16 230.94 323.15 231.30Q324.14 231.65 325.23 231.65L325.23 231.65Q326.83 231.65 328.24 231.14Q329.65 230.62 330.93 229.92L330.93 229.92L332.53 234.53Q331.25 235.30 329.07 236.03Q326.90 236.77 324.53 236.77L324.53 236.77Q319.73 236.77 316.94 233.63Q314.16 230.50 314.16 224.54L314.16 224.54L314.16 208.93L308.40 208.93L308.40 203.94L314.29 203.94ZM344.05 188.64L344.05 208.03Q345.84 205.41 348.56 203.68Q351.28 201.95 355.06 201.95L355.06 201.95Q360.69 201.95 363.47 205.34Q366.26 208.74 366.26 214.30L366.26 214.30L366.26 236L360.50 236L360.50 214.94Q360.50 211.30 358.86 209.15Q357.23 207.01 354.16 207.01L354.16 207.01Q352.69 207.01 351.25 207.55Q349.81 208.10 348.53 209.06Q347.25 210.02 346.10 211.30Q344.94 212.58 344.05 213.98L344.05 213.98L344.05 236L338.29 236L338.29 188.64L344.05 188.64ZM396.08 236.51L390.90 234.40L408.43 191.20L415.09 191.20L432.37 234.40L426.80 236.64L421.81 223.84L401.07 223.84L396.08 236.51ZM411.44 197.22L402.99 218.72L419.82 218.72L411.44 197.22ZM443.57 188.64L443.57 224.99Q443.57 228.45 445.01 230.11Q446.45 231.78 449.01 231.78L449.01 231.78Q450.22 231.78 451.38 231.49Q452.53 231.20 453.42 230.82L453.42 230.82L454.83 235.49Q453.68 236 451.98 236.38Q450.29 236.77 448.24 236.77L448.24 236.77Q446.00 236.77 444.11 236.13Q442.22 235.49 440.82 234.14Q439.41 232.80 438.61 230.69Q437.81 228.58 437.81 225.57L437.81 225.57L437.81 188.64L443.57 188.64ZM466.03 202.72L466.03 236L460.27 236L460.27 202.72L466.03 202.72ZM463.15 197.02L463.15 197.02Q461.49 197.02 460.30 195.84Q459.12 194.66 459.12 192.99L459.12 192.99Q459.12 191.14 460.21 190.05Q461.30 188.96 463.15 188.96L463.15 188.96Q464.82 188.96 466.00 190.14Q467.18 191.33 467.18 192.99L467.18 192.99Q467.18 194.85 466.10 195.94Q465.01 197.02 463.15 197.02ZM489.46 201.95L489.46 201.95Q492.34 201.95 494.61 202.91Q496.88 203.87 498.54 205.28L498.54 205.28L498.54 202.72L503.79 202.72L503.79 235.23Q503.79 239.39 502.70 242.34Q501.62 245.28 499.60 247.17Q497.58 249.06 494.77 249.95Q491.95 250.85 488.50 250.85L488.50 250.85Q485.49 250.85 482.74 250.14Q479.98 249.44 477.81 248.03L477.81 248.03L479.92 243.04Q481.46 244.26 483.50 245.06Q485.55 245.86 488.50 245.86L488.50 245.86Q493.04 245.86 495.63 243.49Q498.22 241.12 498.22 235.81L498.22 235.81L498.22 231.71Q496.94 233.25 494.54 234.62Q492.14 236 488.82 236L488.82 236Q486.00 236 483.31 234.88Q480.62 233.76 478.58 231.62Q476.53 229.47 475.28 226.37Q474.03 223.26 474.03 219.23L474.03 219.23Q474.03 215.52 475.25 212.35Q476.46 209.18 478.54 206.88Q480.62 204.58 483.44 203.26Q486.26 201.95 489.46 201.95ZM490.10 230.88L490.10 230.88Q492.66 230.88 494.70 229.73Q496.75 228.58 498.03 227.04L498.03 227.04L498.03 209.63Q496.56 208.61 494.64 207.78Q492.72 206.94 490.03 206.94L490.03 206.94Q488.05 206.94 486.22 207.74Q484.40 208.54 482.99 210.08Q481.58 211.62 480.75 213.82Q479.92 216.03 479.92 218.91L479.92 218.91Q479.92 221.66 480.75 223.87Q481.58 226.08 482.99 227.65Q484.40 229.22 486.22 230.05Q488.05 230.88 490.10 230.88ZM519.28 202.72L519.28 208.29Q521.07 205.60 523.86 203.78Q526.64 201.95 530.48 201.95L530.48 201.95Q536.11 201.95 538.90 205.34Q541.68 208.74 541.68 214.30L541.68 214.30L541.68 236L535.92 236L535.92 214.94Q535.92 211.30 534.26 209.15Q532.59 207.01 529.52 207.01L529.52 207.01Q528.05 207.01 526.64 207.55Q525.23 208.10 523.92 209.06Q522.61 210.02 521.49 211.30Q520.37 212.58 519.47 213.98L519.47 213.98L519.47 236L513.71 236L513.71 202.72L519.28 202.72Z" data-element="company-name" data-text-path="" data-text="Health Align" data-font-family="ABeeZee" fill="#d177fa" fill-opacity="1"></path></g></g></svg>